<svg xmlns="http://www.w3.org/2000/svg" width="250" height="250" viewBox="0 0 250 250" fill="none">
<rect width="250" height="250" fill="#FEFFFE"/>
<path d="M 195.7,89.54 V 44.42 H 162.27 V 58.28 L 124.8,23 L 7.06,131.81 H 42.96 V 225.21 H 88.83 V 196.06 L 70.96,177.56 V 123.56 C 76.41,122.01 77.33,116.96 76.76,113.39 C 75.95,108.42 72.39,105.24 67.23,105.24 C 60.87,105.24 58.38,111.27 58.38,115.21 C 58.38,119.15 60.72,122.49 64.05,123.81 V 180.72 L 82.28,198.96 V 213.77 H 54.08 V 120.12 H 36.76 L 81.95,79.49 V 128.64 L 78.82,131.42 C 76.96,133.51 75.42,136.91 75.79,139.72 C 76.41,144.39 78.91,146.38 82.09,147.45 V 169.84 L 101.61,190.12 V 225.21 H 108.07 V 138.82 L 127.59,119.14 V 92.11 C 132.25,90.31 133.86,85.89 133.51,83.18 C 132.81,77.83 128.96,73.26 123.92,73.26 C 117.41,73.26 115.32,78.85 115.06,82.73 C 114.81,86.82 117.09,91.02 120.75,92.44 V 116.01 L 102.18,135.35 V 179.29 L 88.61,167.92 V 147.06 C 93.51,145.81 94.72,141.21 94.48,138.3 C 94.11,133.94 91.78,131.01 88.61,129.31 V 72.18 L 100.28,62.17 V 97.38 C 96.34,98.92 93.82,102.38 93.82,106.56 C 93.82,111.81 98.26,116.17 103.61,116.17 C 109.47,116.17 113.48,110.87 113.32,106.22 C 113.17,102.23 110.89,99.36 106.91,97.61 V 55.55 L 124.91,39.11 L 173.32,85.02 V 55.71 H 184.56 V 94.69 L 211.77,120.31 H 195.28 V 213.77 H 133.06 V 225.72 H 207.11 V 131.95 H 243 L 195.7,89.54 Z M 66.99,118.66 C 63.77,118.66 62.78,115.82 62.78,114.77 C 62.78,112.19 64.31,110.07 67.06,110.07 C 70.12,110.07 71.41,112.21 71.41,114.77 C 71.41,117.11 69.48,118.66 66.99,118.66 Z M 124.41,78.61 C 127.42,78.61 128.62,80.96 128.62,83.52 C 128.62,86.21 126.69,87.76 124.62,87.76 C 121.61,87.76 120.12,85.91 120.12,83.52 C 120.12,80.88 121.61,78.61 124.41,78.61 Z M 103.82,102.08 C 107.2,102.08 108.17,104.41 108.17,106.11 C 108.17,108.8 106.24,110.34 104.17,110.34 C 101.16,110.34 99.67,108.49 99.67,106.11 C 99.67,103.98 101.16,102.08 103.82,102.08 Z M 85.31,133.81 C 88.32,133.81 89.61,136.15 89.61,137.7 C 89.61,140.39 87.93,142.28 85.86,142.28 C 82.85,142.28 81.36,140.09 81.36,138.19 C 81.36,136.15 82.85,133.81 85.31,133.81 Z" fill="url(#paint0_linear_1_10)"/>
<path d="M 124.62,142.21 C 117.22,142.21 115.51,149.13 115.51,152.24 C 115.51,157.06 118.11,160.21 120.61,161.46 V 225.21 H 127.21 V 161.72 C 131.72,160.34 133.65,155.91 133.49,152.78 C 133.19,146.74 129.01,142.21 124.62,142.21 Z M 124.41,156.67 C 120.94,156.67 120.12,154.11 120.12,152.21 C 120.12,149.52 121.61,147.62 123.92,147.62 C 127.42,147.62 128.62,149.96 128.62,152.21 C 128.62,154.8 127.13,156.67 124.41,156.67 Z" fill="url(#paint1_linear_1_10)"/>
<path d="M 186.21,117.22 L 182.27,116.51 C 181.52,116.36 180.97,115.91 180.72,115.17 L 179.41,111.93 C 179.08,111.27 179.21,110.46 179.71,109.87 L 182.31,106.06 C 182.71,105.51 182.66,104.75 182.16,104.25 L 177.72,99.76 C 177.22,99.26 176.47,99.21 175.87,99.61 L 172.02,102.2 C 171.47,102.6 170.66,102.65 170.01,102.3 L 167.83,101.31 C 167.13,101.01 166.58,100.51 166.43,99.71 L 165.68,96.92 C 165.53,96.22 165.18,95.92 164.38,95.92 H 158.88 C 158.13,95.92 157.63,96.22 157.48,97.02 L 156.42,101.11 C 156.27,101.81 155.72,102.41 155.02,102.6 L 152.12,103.7 C 151.47,103.95 150.66,103.85 150.06,103.35 L 147.16,101.11 C 146.51,100.61 145.61,100.71 145.06,101.31 L 140.72,105.96 C 140.22,106.51 140.17,107.36 140.62,107.96 L 143.01,111.32 C 143.46,111.92 143.51,112.72 143.11,113.37 L 141.57,116.06 C 141.22,116.71 140.57,117.16 139.82,117.21 L 137.32,117.46 C 136.32,117.56 135.42,117.76 135.42,118.76 V 124.95 C 135.42,125.65 135.82,126.2 136.52,126.35 L 140.47,127.1 C 141.17,127.25 141.72,127.8 141.92,128.5 L 142.87,131.19 C 143.12,131.89 143.02,132.69 142.52,133.29 L 140.32,136.45 C 139.82,137.15 139.92,138.1 140.57,138.7 L 145.36,143.04 C 145.91,143.54 146.76,143.59 147.36,143.14 L 150.71,140.75 C 151.31,140.3 152.11,140.25 152.76,140.55 L 155.01,141.54 C 155.71,141.84 156.21,142.49 156.31,143.24 L 157.01,147.03 C 157.16,147.78 157.61,148.13 158.36,148.13 H 164.21 C 164.91,148.13 165.51,147.63 165.66,146.93 L 166.51,142.79 C 166.66,142.04 167.26,141.44 168.01,141.24 L 170.06,140.64 C 170.76,140.44 171.51,140.59 172.11,141.04 L 174.86,143.19 C 175.51,143.69 176.46,143.59 177.01,142.99 L 182.01,137.89 C 182.56,137.34 182.61,136.44 182.11,135.84 L 179.81,132.6 C 179.36,132 179.31,131.2 179.71,130.55 L 181.06,127.86 C 181.41,127.21 182.06,126.76 182.81,126.66 L 186.21,126.11 C 187.06,125.96 187.46,125.36 187.46,124.51 V 118.61 C 187.46,117.86 187.01,117.36 186.21,117.22 Z M 161.61,132.94 C 153.91,133.39 149.47,127.05 149.72,121.06 C 149.97,113.72 155.62,110.03 161.32,110.13 C 168.12,110.28 172.72,115.72 172.62,121.51 C 172.52,127.9 167.62,132.6 161.61,132.94 Z" fill="url(#paint2_linear_1_10)"/>
<path d="M 185.86,175.17 L 182.31,174.42 C 181.66,174.27 181.11,173.77 180.86,173.12 L 179.81,170.38 C 179.56,169.73 179.61,168.98 180.01,168.38 L 182.51,164.78 C 182.91,164.18 182.81,163.33 182.26,162.83 L 177.67,158.54 C 177.12,158.04 176.27,157.99 175.62,158.44 L 172.32,160.78 C 171.72,161.18 170.92,161.23 170.27,160.88 L 167.83,159.68 C 167.18,159.38 166.68,158.78 166.53,158.03 L 165.73,154.79 C 165.58,154.09 165.23,153.74 164.43,153.74 H 158.73 C 158.03,153.74 157.43,154.24 157.28,154.94 L 156.43,158.78 C 156.28,159.48 155.73,160.08 155.03,160.28 L 152.43,161.28 C 151.78,161.53 151.03,161.43 150.43,160.98 L 147.48,158.93 C 146.83,158.48 145.88,158.58 145.33,159.18 L 141.14,163.62 C 140.59,164.22 140.54,165.12 140.99,165.77 L 143.29,169.07 C 143.74,169.67 143.79,170.47 143.44,171.12 L 142.04,173.91 C 141.69,174.56 141.04,175.01 140.29,175.06 L 137.44,175.41 C 136.59,175.51 135.79,176.06 135.79,176.91 V 182.8 C 135.79,183.5 136.24,184.1 136.94,184.25 L 141.04,185.1 C 141.74,185.25 142.29,185.75 142.54,186.4 L 143.49,189.09 C 143.74,189.79 143.64,190.54 143.24,191.14 L 140.94,194.74 C 140.49,195.39 140.59,196.29 141.19,196.84 L 145.43,200.58 C 145.98,201.08 146.83,201.13 147.48,200.73 L 150.83,198.59 C 151.43,198.24 152.23,198.19 152.88,198.49 L 155.03,199.49 C 155.73,199.79 156.23,200.44 156.33,201.19 L 157.03,204.98 C 157.18,205.68 157.63,206.03 158.38,206.03 H 164.68 C 165.38,206.03 165.98,205.53 166.08,204.83 L 166.73,201.23 C 166.88,200.48 167.43,199.88 168.18,199.63 L 170.53,198.88 C 171.18,198.68 171.93,198.78 172.48,199.18 L 175.72,201.38 C 176.37,201.83 177.27,201.73 177.82,201.13 L 182.31,196.54 C 182.86,195.99 182.91,195.09 182.46,194.44 L 179.91,190.79 C 179.46,190.14 179.41,189.29 179.81,188.59 L 180.91,186.35 C 181.26,185.7 181.91,185.25 182.66,185.1 L 186.41,184.35 C 187.21,184.2 187.71,183.55 187.71,182.75 V 176.71 C 187.71,175.86 187.06,175.31 185.86,175.17 Z M 161.61,191.19 C 154.21,191.19 149.17,184.85 149.42,178.91 C 149.72,172.12 155.42,168.08 160.52,168.18 C 167.82,168.33 172.62,173.42 172.52,179.51 C 172.42,186.1 167.62,191.19 161.61,191.19 Z" fill="url(#paint3_linear_1_10)"/>
<defs>
<linearGradient id="paint0_linear_1_10" x1="35.4901" y1="201.709" x2="204.201" y2="46.0502" gradientUnits="userSpaceOnUse">
<stop stop-color="#19478A"/>
<stop offset="0.494792" stop-color="#0080A2"/>
<stop offset="1" stop-color="#6AC063"/>
</linearGradient>
<linearGradient id="paint1_linear_1_10" x1="35.4901" y1="201.709" x2="204.201" y2="46.0502" gradientUnits="userSpaceOnUse">
<stop stop-color="#19478A"/>
<stop offset="0.494792" stop-color="#0080A2"/>
<stop offset="1" stop-color="#6AC063"/>
</linearGradient>
<linearGradient id="paint2_linear_1_10" x1="139.68" y1="145.007" x2="181.826" y2="97.4222" gradientUnits="userSpaceOnUse">
<stop stop-color="#006A9B"/>
<stop offset="1" stop-color="#69C061"/>
</linearGradient>
<linearGradient id="paint3_linear_1_10" x1="139.68" y1="202.908" x2="181.826" y2="155.323" gradientUnits="userSpaceOnUse">
<stop stop-color="#006A9B"/>
<stop offset="1" stop-color="#1F848F"/>
</linearGradient>
</defs>
</svg>
